<svg width="27" height="27" viewBox="0 0 27 27" fill="none" xmlns="http://www.w3.org/2000/svg">
<path d="M16.3845 12.5385H18.3076V21.1923" stroke="#F5F5F5" stroke-linecap="round" stroke-linejoin="round"/>
<path d="M16.3845 21.1923H20.2307" stroke="#F5F5F5" stroke-linecap="round" stroke-linejoin="round"/>
<path d="M2.92308 4.84619C2.41305 4.84619 1.9239 5.0488 1.56326 5.40945C1.20261 5.77009 1 6.25924 1 6.76927V24.077C1 24.587 1.20261 25.0761 1.56326 25.4368C1.9239 25.7974 2.41305 26 2.92308 26H24.0769C24.587 26 25.0761 25.7974 25.4367 25.4368C25.7974 25.0761 26 24.587 26 24.077V6.76927C26 6.25924 25.7974 5.77009 25.4367 5.40945C25.0761 5.0488 24.587 4.84619 24.0769 4.84619H20.2308" stroke="#F5F5F5" stroke-linecap="round" stroke-linejoin="round"/>
<path d="M6.76929 1V8.69231" stroke="#F5F5F5" stroke-linecap="round" stroke-linejoin="round"/>
<path d="M20.2307 1V8.69231" stroke="#F5F5F5" stroke-linecap="round" stroke-linejoin="round"/>
<path d="M6.76929 4.84619H16.3847" stroke="#F5F5F5" stroke-linecap="round" stroke-linejoin="round"/>
<path d="M6.76929 12.5385H11.577L8.69236 16.3846C8.69236 16.3846 11.577 16.3846 11.577 18.3077C11.6312 18.6992 11.594 19.098 11.4683 19.4727C11.3425 19.8474 11.1316 20.1879 10.8521 20.4674C10.5726 20.7469 10.2321 20.9578 9.85738 21.0836C9.48266 21.2093 9.08389 21.2466 8.69236 21.1923H6.76929" stroke="#F5F5F5" stroke-linecap="round" stroke-linejoin="round"/>
</svg>
