<svg width="19" height="27" viewBox="0 0 19 27" fill="none" xmlns="http://www.w3.org/2000/svg">
<path d="M18.3077 9.65385C18.3077 14.4423 9.65385 26 9.65385 26C9.65385 26 1 14.4423 1 9.65385C1 7.3587 1.91174 5.15756 3.53465 3.53465C5.15756 1.91174 7.3587 1 9.65385 1C11.949 1 14.1501 1.91174 15.773 3.53465C17.3959 5.15756 18.3077 7.3587 18.3077 9.65385V9.65385Z" stroke="#F5F5F5" stroke-linecap="round" stroke-linejoin="round"/>
<path d="M9.6539 12.5385C11.247 12.5385 12.5385 11.247 12.5385 9.6539C12.5385 8.06077 11.247 6.76929 9.6539 6.76929C8.06077 6.76929 6.76929 8.06077 6.76929 9.6539C6.76929 11.247 8.06077 12.5385 9.6539 12.5385Z" stroke="#F5F5F5" stroke-linecap="round" stroke-linejoin="round"/>
</svg>
