<svg width="27" height="28" viewBox="0 0 27 28" fill="none" xmlns="http://www.w3.org/2000/svg">
<path d="M13.2343 19.1938C18.2584 19.1938 22.3312 15.121 22.3312 10.0969C22.3312 5.07281 18.2584 1 13.2343 1C8.21027 1 4.13745 5.07281 4.13745 10.0969C4.13745 15.121 8.21027 19.1938 13.2343 19.1938Z" stroke="#F5F5F5" stroke-linecap="round" stroke-linejoin="round"/>
<path d="M13.2342 14.14C15.4671 14.14 17.2773 12.3298 17.2773 10.0969C17.2773 7.86397 15.4671 6.05383 13.2342 6.05383C11.0013 6.05383 9.19116 7.86397 9.19116 10.0969C9.19116 12.3298 11.0013 14.14 13.2342 14.14Z" stroke="#F5F5F5" stroke-linecap="round" stroke-linejoin="round"/>
<path d="M11.4756 19.0321L9.69667 26.5117C9.66147 26.6539 9.59638 26.7869 9.50576 26.9019C9.41513 27.0169 9.30104 27.1113 9.17107 27.1788C9.03391 27.2384 8.88597 27.2691 8.73645 27.2691C8.58692 27.2691 8.43898 27.2384 8.30182 27.1788L1.59034 24.2476C1.44956 24.1811 1.32569 24.0835 1.22802 23.9622C1.13035 23.8409 1.06142 23.6991 1.0264 23.5474C0.991388 23.3956 0.991198 23.238 1.02585 23.0861C1.0605 22.9343 1.12908 22.7923 1.22646 22.6708L6.42179 16.1615" stroke="#F5F5F5" stroke-linecap="round" stroke-linejoin="round"/>
<path d="M15.5188 18.9311L17.3382 26.5118C17.3744 26.6563 17.442 26.7911 17.5364 26.9064C17.6308 27.0218 17.7495 27.1148 17.884 27.1789C18.0174 27.2392 18.1621 27.2704 18.3085 27.2704C18.4549 27.2704 18.5996 27.2392 18.733 27.1789L25.4041 24.2477C25.547 24.1819 25.6726 24.0837 25.7708 23.9609C25.8691 23.8381 25.9373 23.694 25.9701 23.5401C26.0084 23.3896 26.0101 23.2322 25.9749 23.0809C25.9397 22.9296 25.8688 22.789 25.768 22.6709L20.3503 15.7775" stroke="#F5F5F5" stroke-linecap="round" stroke-linejoin="round"/>
</svg>
