<svg width="19" height="20" viewBox="0 0 19 20" fill="none" xmlns="http://www.w3.org/2000/svg">
<path d="M9.4455 12.5502C11.1355 12.5502 12.5055 11.1802 12.5055 9.49017C12.5055 7.80018 11.1355 6.43018 9.4455 6.43018C7.75551 6.43018 6.3855 7.80018 6.3855 9.49017C6.3855 11.1802 7.75551 12.5502 9.4455 12.5502Z" stroke="#F5F5F5" stroke-width="1.7" stroke-linecap="round" stroke-linejoin="round"/>
<path d="M14.8856 18.6702C14.3708 17.6712 13.5908 16.8333 12.6312 16.2483C11.6716 15.6633 10.5695 15.3539 9.44561 15.3539C8.32177 15.3539 7.21964 15.6633 6.26005 16.2483C5.30046 16.8333 4.52047 17.6712 4.00562 18.6702" stroke="#F5F5F5" stroke-width="1.7" stroke-linecap="round" stroke-linejoin="round"/>
<path d="M16.2456 14.6717C17.2107 13.4129 17.8043 11.9092 17.9593 10.3306C18.1143 8.75196 17.8245 7.16148 17.1227 5.739C16.4208 4.31652 15.3349 3.11881 13.9878 2.28133C12.6408 1.44384 11.0862 1 9.5 1C7.9138 1 6.35925 1.44384 5.01216 2.28133C3.66507 3.11881 2.57919 4.31652 1.87735 5.739C1.1755 7.16148 0.885686 8.75196 1.04068 10.3306C1.19568 11.9092 1.7893 13.4129 2.7544 14.6717" stroke="#F5F5F5" stroke-width="1.7" stroke-linecap="round" stroke-linejoin="round"/>
</svg>
