<svg width="17" height="17" viewBox="0 0 17 17" fill="none" xmlns="http://www.w3.org/2000/svg">
<path d="M9.04209 8.38189C8.87095 8.45621 8.68637 8.49456 8.49979 8.49456C8.31321 8.49456 8.12862 8.45621 7.95748 8.38189L1.38056 5.33574C1.27376 5.28187 1.18401 5.19942 1.1213 5.09756C1.05859 4.9957 1.02539 4.87843 1.02539 4.75882C1.02539 4.6392 1.05859 4.52194 1.1213 4.42008C1.18401 4.31822 1.27376 4.23576 1.38056 4.18189L7.95748 1.11266C8.12862 1.03835 8.31321 1 8.49979 1C8.68637 1 8.87095 1.03835 9.04209 1.11266L15.619 4.15882C15.7258 4.21268 15.8156 4.29514 15.8783 4.397C15.941 4.49886 15.9742 4.61613 15.9742 4.73574C15.9742 4.85535 15.941 4.97262 15.8783 5.07448C15.8156 5.17634 15.7258 5.2588 15.619 5.31266L9.04209 8.38189Z" stroke="#F5F5F5" stroke-width="1.5" stroke-linecap="round" stroke-linejoin="round"/>
<path d="M16 8.90112L8.96154 12.1434C8.81121 12.212 8.64792 12.2475 8.48269 12.2475C8.31747 12.2475 8.15417 12.212 8.00385 12.1434L1 8.90112" stroke="#F5F5F5" stroke-width="1.5" stroke-linecap="round" stroke-linejoin="round"/>
<path d="M16 12.6511L8.96154 15.8934C8.81121 15.962 8.64792 15.9975 8.48269 15.9975C8.31747 15.9975 8.15417 15.962 8.00385 15.8934L1 12.6511" stroke="#F5F5F5" stroke-width="1.5" stroke-linecap="round" stroke-linejoin="round"/>
</svg>
